<svg xmlns="http://www.w3.org/2000/svg" width="1000" height="320" viewBox="0 0 1000 320" role="img" aria-labelledby="title desc">
  <title id="title">1AIVault Memory architecture</title>
  <desc id="desc">Hermes Agent, Claude Code, and Codex connect to one shared local 1AIVault.</desc>
  <defs>
    <pattern id="grid" width="32" height="32" patternUnits="userSpaceOnUse">
      <path d="M32 0H0V32" fill="none" stroke="#17303c" stroke-width="1"/>
    </pattern>
  </defs>

  <rect width="1000" height="320" rx="18" fill="#07101b"/>
  <rect width="1000" height="320" rx="18" fill="url(#grid)" opacity="0.72"/>
  <rect x="1" y="1" width="998" height="318" rx="17" fill="none" stroke="#294552" stroke-width="2"/>

  <text x="48" y="47" fill="#f4f1e9" font-family="Verdana, sans-serif" font-size="20" font-weight="700">One vault, three agents</text>
  <text x="48" y="72" fill="#9aabb5" font-family="Verdana, sans-serif" font-size="12">Hermes owns provider lifecycle. Claude Code and Codex join through their own MCP wiring.</text>

  <!-- Visible bidirectional connection lanes -->
  <g fill="none" stroke-linecap="round" stroke-linejoin="round">
    <path d="M260 139H405" stroke="#28d7eb" stroke-width="3"/>
    <polygon points="405,139 393,132 393,146" fill="#28d7eb"/>
    <polygon points="260,139 272,132 272,146" fill="#28d7eb"/>

    <path d="M260 247L405 213" stroke="#8fa6b2" stroke-width="3"/>
    <polygon points="405,213 392,209 395,223" fill="#8fa6b2"/>
    <polygon points="260,247 273,251 270,237" fill="#8fa6b2"/>

    <path d="M595 170H740" stroke="#8fa6b2" stroke-width="3"/>
    <polygon points="740,170 728,163 728,177" fill="#8fa6b2"/>
    <polygon points="595,170 607,163 607,177" fill="#8fa6b2"/>
  </g>

  <g font-family="Verdana, sans-serif">
    <rect x="48" y="104" width="212" height="78" rx="10" fill="#102c35" stroke="#28d7eb" stroke-width="2"/>
    <circle cx="76" cy="131" r="7" fill="#28d7eb"/>
    <text x="94" y="137" fill="#f4f1e9" font-size="17" font-weight="700">Hermes Agent</text>
    <text x="76" y="161" fill="#a9bbc4" font-size="12">native provider · lifecycle owner</text>

    <rect x="48" y="212" width="212" height="70" rx="10" fill="#111f29" stroke="#8fa6b2" stroke-width="1.5"/>
    <circle cx="76" cy="238" r="6" fill="#d99872"/>
    <text x="94" y="244" fill="#f4f1e9" font-size="16" font-weight="700">Claude Code</text>
    <text x="76" y="266" fill="#a9bbc4" font-size="12">1AIVault MCP</text>

    <rect x="405" y="103" width="190" height="150" rx="18" fill="#2d2020" stroke="#d99872" stroke-width="2.5"/>
    <circle cx="500" cy="144" r="21" fill="none" stroke="#d99872" stroke-width="3"/>
    <path d="M493 143a7 7 0 1 1 14 0c0 4-2 6-4 8v11h-6v-11c-2-2-4-4-4-8Z" fill="#d99872"/>
    <text x="500" y="196" fill="#f4f1e9" font-size="20" font-weight="700" text-anchor="middle">1AIVault</text>
    <text x="500" y="220" fill="#d6b19a" font-size="12" text-anchor="middle">shared local vault</text>
    <rect x="421" y="266" width="158" height="27" rx="13.5" fill="#10282f" stroke="#58c6d4"/>
    <text x="500" y="284" fill="#b7d9df" font-size="11" text-anchor="middle">fail-soft · redacted · bounded</text>

    <rect x="740" y="132" width="212" height="78" rx="10" fill="#111f29" stroke="#8fa6b2" stroke-width="1.5"/>
    <circle cx="768" cy="159" r="6" fill="#9bafbb"/>
    <text x="786" y="165" fill="#f4f1e9" font-size="17" font-weight="700">Codex</text>
    <text x="768" y="189" fill="#a9bbc4" font-size="12">1AIVault MCP</text>
  </g>
</svg>
